<?xml version="1.0" encoding="utf-8"?>
<!-- Generator: Adobe Illustrator 17.0.0, SVG Export Plug-In . SVG Version: 6.00 Build 0)  -->
<!DOCTYPE svg PUBLIC "-//W3C//DTD SVG 1.1//EN" "http://www.w3.org/Graphics/SVG/1.1/DTD/svg11.dtd">
<svg version="1.1" id="Layer_1" xmlns="http://www.w3.org/2000/svg" xmlns:xlink="http://www.w3.org/1999/xlink" x="0px" y="0px"
	 width="834.42px" height="331.637px" viewBox="0 0 834.42 331.637" enable-background="new 0 0 834.42 331.637"
	 xml:space="preserve">
<g id="Logo-colour" opacity="0.5">
	<g>
		<path fill="#A3A9AF" d="M522.292,120.622c-3.191-1.772-5.688-4.218-7.485-7.334c-1.8-3.116-2.698-6.649-2.698-10.602
			s0.898-7.486,2.698-10.603c1.798-3.116,4.294-5.548,7.485-7.296c3.192-1.748,6.789-2.622,10.792-2.622
			c4.002,0,7.587,0.874,10.754,2.622c3.166,1.748,5.649,4.18,7.448,7.296c1.798,3.116,2.698,6.65,2.698,10.603
			s-0.9,7.485-2.698,10.602c-1.799,3.116-4.282,5.562-7.448,7.334c-3.167,1.774-6.752,2.66-10.754,2.66
			C529.081,123.282,525.484,122.396,522.292,120.622z M540.038,115.112c2.052-1.19,3.66-2.862,4.826-5.017
			c1.165-2.152,1.748-4.622,1.748-7.409c0-2.786-0.583-5.256-1.748-7.41c-1.166-2.153-2.774-3.812-4.826-4.979
			c-2.052-1.165-4.37-1.748-6.954-1.748s-4.901,0.583-6.954,1.748c-2.052,1.167-3.674,2.825-4.863,4.979
			c-1.191,2.154-1.786,4.624-1.786,7.41c0,2.787,0.595,5.257,1.786,7.409c1.189,2.154,2.812,3.826,4.863,5.017
			c2.053,1.19,4.37,1.786,6.954,1.786S537.986,116.303,540.038,115.112z"/>
		<path fill="#A3A9AF" d="M595.935,84.75c3.091,1.724,5.511,4.13,7.259,7.221s2.622,6.662,2.622,10.716s-0.874,7.638-2.622,10.754
			s-4.168,5.536-7.259,7.258c-3.091,1.723-6.587,2.584-10.487,2.584c-2.889,0-5.536-0.557-7.942-1.672
			c-2.407-1.114-4.446-2.736-6.118-4.864v20.824h-7.296V82.546h6.992v6.384c1.621-2.229,3.673-3.914,6.156-5.054
			c2.481-1.14,5.218-1.71,8.208-1.71C589.348,82.166,592.844,83.028,595.935,84.75z M591.794,115.112
			c2.052-1.19,3.673-2.862,4.864-5.017c1.189-2.152,1.786-4.622,1.786-7.409c0-2.786-0.597-5.256-1.786-7.41
			c-1.191-2.153-2.812-3.812-4.864-4.979c-2.052-1.165-4.37-1.748-6.954-1.748c-2.534,0-4.826,0.597-6.878,1.786
			c-2.052,1.191-3.674,2.851-4.864,4.979s-1.785,4.586-1.785,7.372c0,2.787,0.581,5.257,1.747,7.409
			c1.165,2.154,2.786,3.826,4.864,5.017c2.077,1.19,4.382,1.786,6.916,1.786C587.423,116.898,589.742,116.303,591.794,115.112z"/>
		<path fill="#A3A9AF" d="M652.174,105.118h-32.68c0.456,3.547,2.014,6.397,4.674,8.55c2.66,2.154,5.966,3.23,9.918,3.23
			c4.813,0,8.689-1.621,11.628-4.864l4.028,4.712c-1.824,2.128-4.092,3.75-6.802,4.864c-2.711,1.115-5.738,1.672-9.082,1.672
			c-4.256,0-8.031-0.874-11.324-2.622c-3.294-1.748-5.84-4.191-7.638-7.334c-1.8-3.141-2.698-6.688-2.698-10.64
			c0-3.901,0.874-7.422,2.622-10.564c1.748-3.141,4.153-5.586,7.22-7.334c3.065-1.748,6.523-2.622,10.374-2.622
			c3.85,0,7.283,0.874,10.298,2.622c3.014,1.748,5.37,4.193,7.068,7.334c1.696,3.143,2.546,6.739,2.546,10.792
			C652.327,103.473,652.276,104.206,652.174,105.118z M623.636,91.514c-2.355,2.129-3.736,4.916-4.142,8.36h25.84
			c-0.406-3.394-1.786-6.168-4.142-8.322c-2.356-2.152-5.282-3.229-8.778-3.229S625.993,89.387,623.636,91.514z"/>
		<path fill="#A3A9AF" d="M696.141,86.612c3.014,2.964,4.521,7.309,4.521,13.034v23.18h-7.296v-22.344
			c0-3.901-0.938-6.84-2.812-8.816c-1.875-1.976-4.561-2.964-8.057-2.964c-3.952,0-7.067,1.153-9.348,3.458
			c-2.28,2.307-3.42,5.612-3.42,9.918v20.748h-7.296v-40.28h6.992v6.08c1.469-2.077,3.458-3.673,5.966-4.788
			c2.508-1.113,5.357-1.672,8.55-1.672C689.06,82.166,693.126,83.648,696.141,86.612z"/>
		<path fill="#A3A9AF" d="M517.883,203.952c-3.039-0.886-5.422-2.014-7.144-3.382l3.04-5.776c1.772,1.268,3.926,2.28,6.46,3.04
			c2.533,0.76,5.092,1.141,7.676,1.141c6.384,0,9.576-1.824,9.576-5.473c0-1.216-0.431-2.178-1.292-2.888
			c-0.862-0.709-1.938-1.228-3.229-1.558c-1.292-0.329-3.13-0.696-5.511-1.103c-3.243-0.506-5.89-1.089-7.941-1.748
			c-2.053-0.657-3.813-1.772-5.282-3.344c-1.47-1.57-2.204-3.774-2.204-6.612c0-3.647,1.521-6.574,4.56-8.777
			c3.04-2.204,7.118-3.307,12.236-3.307c2.686,0,5.37,0.33,8.056,0.988c2.686,0.659,4.89,1.546,6.612,2.66l-3.116,5.775
			c-3.294-2.128-7.17-3.191-11.628-3.191c-3.091,0-5.446,0.507-7.067,1.52c-1.622,1.015-2.433,2.356-2.433,4.028
			c0,1.318,0.456,2.355,1.368,3.116c0.912,0.76,2.039,1.317,3.382,1.672c1.342,0.354,3.23,0.76,5.662,1.216
			c3.242,0.558,5.864,1.153,7.866,1.786c2.001,0.634,3.711,1.71,5.13,3.229c1.418,1.521,2.128,3.648,2.128,6.385
			c0,3.647-1.558,6.549-4.674,8.701c-3.116,2.154-7.36,3.23-12.73,3.23C524.089,205.282,520.923,204.838,517.883,203.952z"/>
		<path fill="#A3A9AF" d="M591.451,164.546v40.28h-6.916v-6.08c-1.47,2.078-3.408,3.686-5.813,4.826
			c-2.407,1.14-5.029,1.71-7.866,1.71c-5.371,0-9.603-1.482-12.692-4.446c-3.091-2.964-4.636-7.334-4.636-13.109v-23.181h7.296
			v22.345c0,3.901,0.938,6.853,2.812,8.854c1.874,2.002,4.56,3.002,8.056,3.002c3.85,0,6.89-1.165,9.12-3.496
			c2.229-2.33,3.344-5.624,3.344-9.88v-20.824H591.451z"/>
		<path fill="#A3A9AF" d="M667.793,168.574c2.964,2.939,4.445,7.296,4.445,13.072v23.18h-7.296v-22.344
			c0-3.901-0.899-6.84-2.698-8.816c-1.799-1.976-4.369-2.964-7.714-2.964c-3.698,0-6.638,1.153-8.815,3.458
			c-2.18,2.307-3.269,5.612-3.269,9.918v20.748h-7.296v-22.344c0-3.901-0.899-6.84-2.698-8.816
			c-1.799-1.976-4.369-2.964-7.714-2.964c-3.698,0-6.638,1.153-8.815,3.458c-2.18,2.307-3.269,5.612-3.269,9.918v20.748h-7.296
			v-40.28h6.992v6.004c1.469-2.076,3.394-3.659,5.776-4.75c2.381-1.089,5.092-1.634,8.132-1.634c3.141,0,5.928,0.635,8.359,1.9
			c2.433,1.267,4.307,3.115,5.624,5.548c1.521-2.33,3.636-4.154,6.347-5.472c2.71-1.317,5.763-1.977,9.158-1.977
			C660.812,164.166,664.829,165.637,667.793,168.574z"/>
		<path fill="#A3A9AF" d="M748.124,168.574c2.964,2.939,4.446,7.296,4.446,13.072v23.18h-7.296v-22.344
			c0-3.901-0.9-6.84-2.698-8.816c-1.799-1.976-4.37-2.964-7.714-2.964c-3.699,0-6.639,1.153-8.816,3.458
			c-2.179,2.307-3.268,5.612-3.268,9.918v20.748h-7.296v-22.344c0-3.901-0.9-6.84-2.698-8.816c-1.799-1.976-4.37-2.964-7.714-2.964
			c-3.699,0-6.639,1.153-8.816,3.458c-2.179,2.307-3.268,5.612-3.268,9.918v20.748h-7.296v-40.28h6.992v6.004
			c1.469-2.076,3.394-3.659,5.775-4.75c2.381-1.089,5.092-1.634,8.132-1.634c3.142,0,5.929,0.635,8.36,1.9
			c2.432,1.267,4.306,3.115,5.624,5.548c1.52-2.33,3.635-4.154,6.346-5.472c2.71-1.317,5.764-1.977,9.158-1.977
			C741.144,164.166,745.16,165.637,748.124,168.574z"/>
		<path fill="#A3A9AF" d="M802.501,187.118H769.82c0.456,3.547,2.015,6.397,4.675,8.55c2.659,2.154,5.966,3.23,9.918,3.23
			c4.812,0,8.688-1.621,11.628-4.864l4.027,4.712c-1.823,2.128-4.092,3.75-6.802,4.864c-2.711,1.115-5.738,1.672-9.082,1.672
			c-4.256,0-8.031-0.874-11.324-2.622c-3.294-1.748-5.84-4.191-7.638-7.334c-1.799-3.141-2.698-6.688-2.698-10.64
			c0-3.901,0.874-7.422,2.622-10.564c1.748-3.141,4.154-5.586,7.221-7.334c3.064-1.748,6.522-2.622,10.374-2.622
			c3.85,0,7.282,0.874,10.298,2.622c3.014,1.748,5.369,4.193,7.067,7.334c1.697,3.143,2.546,6.739,2.546,10.792
			C802.652,185.473,802.601,186.206,802.501,187.118z M773.962,173.514c-2.356,2.129-3.737,4.916-4.143,8.36h25.841
			c-0.406-3.394-1.786-6.168-4.143-8.322c-2.355-2.152-5.282-3.229-8.777-3.229C779.245,170.322,776.318,171.387,773.962,173.514z"
			/>
		<path fill="#A3A9AF" d="M825.377,165.99c2.481-1.216,5.496-1.824,9.044-1.824v7.068c-0.406-0.05-0.964-0.076-1.673-0.076
			c-3.951,0-7.056,1.178-9.31,3.534c-2.255,2.355-3.382,5.713-3.382,10.069v20.064h-7.296v-40.28h6.992v6.765
			C821.018,168.98,822.893,167.206,825.377,165.99z"/>
		<path fill="#A3A9AF" d="M522.292,284.622c-3.191-1.772-5.688-4.218-7.485-7.334c-1.8-3.116-2.698-6.649-2.698-10.602
			s0.898-7.486,2.698-10.603c1.798-3.116,4.294-5.548,7.485-7.296c3.192-1.748,6.789-2.622,10.792-2.622
			c4.002,0,7.587,0.874,10.754,2.622c3.166,1.748,5.649,4.18,7.448,7.296c1.798,3.116,2.698,6.65,2.698,10.603
			s-0.9,7.485-2.698,10.602c-1.799,3.116-4.282,5.562-7.448,7.334c-3.167,1.774-6.752,2.66-10.754,2.66
			C529.081,287.282,525.484,286.396,522.292,284.622z M540.038,279.112c2.052-1.19,3.66-2.862,4.826-5.017
			c1.165-2.152,1.748-4.622,1.748-7.409c0-2.786-0.583-5.256-1.748-7.41c-1.166-2.153-2.774-3.812-4.826-4.979
			c-2.052-1.165-4.37-1.748-6.954-1.748s-4.901,0.583-6.954,1.748c-2.052,1.167-3.674,2.825-4.863,4.979
			c-1.191,2.154-1.786,4.624-1.786,7.41c0,2.787,0.595,5.257,1.786,7.409c1.189,2.154,2.812,3.826,4.863,5.017
			c2.053,1.19,4.37,1.786,6.954,1.786S537.986,280.303,540.038,279.112z"/>
		<path fill="#A3A9AF" d="M572.299,243.05v3.496h11.704v6.004h-11.552v34.276h-7.296V252.55h-6.84v-6.004h6.84v-3.571
			c0-4.002,1.165-7.17,3.496-9.5c2.329-2.33,5.598-3.496,9.804-3.496c1.621,0,3.141,0.203,4.56,0.607
			c1.418,0.406,2.634,0.988,3.648,1.748l-2.204,5.548c-1.672-1.266-3.547-1.899-5.624-1.899
			C574.477,235.982,572.299,238.338,572.299,243.05z"/>
		<path fill="#A3A9AF" d="M617.937,284.622c-3.218-1.772-5.738-4.218-7.562-7.334c-1.824-3.116-2.736-6.649-2.736-10.602
			s0.912-7.486,2.736-10.603c1.823-3.116,4.344-5.548,7.562-7.296c3.217-1.748,6.878-2.622,10.982-2.622
			c3.647,0,6.902,0.735,9.766,2.204c2.862,1.47,5.079,3.599,6.65,6.384l-5.549,3.572c-1.267-1.925-2.838-3.369-4.712-4.332
			c-1.875-0.962-3.952-1.444-6.231-1.444c-2.636,0-5.004,0.583-7.106,1.748c-2.103,1.167-3.75,2.825-4.939,4.979
			c-1.191,2.154-1.786,4.624-1.786,7.41c0,2.838,0.595,5.333,1.786,7.485c1.189,2.154,2.837,3.813,4.939,4.979
			c2.103,1.166,4.471,1.748,7.106,1.748c2.279,0,4.356-0.481,6.231-1.444c1.874-0.962,3.445-2.405,4.712-4.332l5.549,3.496
			c-1.571,2.787-3.788,4.928-6.65,6.422c-2.863,1.495-6.118,2.242-9.766,2.242C624.815,287.282,621.154,286.396,617.937,284.622z"/>
		<path fill="#A3A9AF" d="M660.611,284.622c-3.191-1.772-5.688-4.218-7.485-7.334c-1.8-3.116-2.698-6.649-2.698-10.602
			s0.898-7.486,2.698-10.603c1.798-3.116,4.294-5.548,7.485-7.296c3.192-1.748,6.789-2.622,10.792-2.622
			c4.002,0,7.587,0.874,10.754,2.622c3.166,1.748,5.649,4.18,7.448,7.296c1.798,3.116,2.698,6.65,2.698,10.603
			s-0.9,7.485-2.698,10.602c-1.799,3.116-4.282,5.562-7.448,7.334c-3.167,1.774-6.752,2.66-10.754,2.66
			C667.4,287.282,663.803,286.396,660.611,284.622z M678.357,279.112c2.052-1.19,3.66-2.862,4.826-5.017
			c1.165-2.152,1.748-4.622,1.748-7.409c0-2.786-0.583-5.256-1.748-7.41c-1.166-2.153-2.774-3.812-4.826-4.979
			c-2.052-1.165-4.37-1.748-6.954-1.748s-4.901,0.583-6.954,1.748c-2.052,1.167-3.674,2.825-4.863,4.979
			c-1.191,2.154-1.786,4.624-1.786,7.41c0,2.787,0.595,5.257,1.786,7.409c1.189,2.154,2.812,3.826,4.863,5.017
			c2.053,1.19,4.37,1.786,6.954,1.786S676.305,280.303,678.357,279.112z"/>
		<path fill="#A3A9AF" d="M740.411,230.435v56.392h-6.992v-6.384c-1.622,2.229-3.674,3.927-6.155,5.092
			c-2.483,1.166-5.22,1.748-8.208,1.748c-3.902,0-7.398-0.861-10.488-2.584c-3.091-1.722-5.51-4.142-7.258-7.258
			s-2.622-6.7-2.622-10.754s0.874-7.625,2.622-10.716c1.748-3.091,4.167-5.497,7.258-7.221c3.09-1.722,6.586-2.584,10.488-2.584
			c2.888,0,5.548,0.545,7.979,1.634c2.433,1.091,4.458,2.698,6.08,4.826v-22.191H740.411z M726.579,279.112
			c2.077-1.19,3.698-2.862,4.864-5.017c1.165-2.152,1.748-4.622,1.748-7.409c0-2.786-0.583-5.256-1.748-7.41
			c-1.166-2.153-2.787-3.812-4.864-4.979c-2.078-1.165-4.383-1.748-6.916-1.748c-2.584,0-4.901,0.583-6.954,1.748
			c-2.052,1.167-3.674,2.825-4.863,4.979c-1.191,2.154-1.786,4.624-1.786,7.41c0,2.787,0.595,5.257,1.786,7.409
			c1.189,2.154,2.812,3.826,4.863,5.017c2.053,1.19,4.37,1.786,6.954,1.786C722.196,280.898,724.501,280.303,726.579,279.112z"/>
		<path fill="#A3A9AF" d="M790.494,269.118h-32.68c0.456,3.547,2.014,6.397,4.674,8.55c2.66,2.154,5.966,3.23,9.918,3.23
			c4.813,0,8.689-1.621,11.628-4.864l4.028,4.712c-1.824,2.128-4.092,3.75-6.802,4.864c-2.711,1.115-5.738,1.672-9.082,1.672
			c-4.256,0-8.031-0.874-11.324-2.622c-3.294-1.748-5.84-4.191-7.638-7.334c-1.8-3.141-2.698-6.688-2.698-10.64
			c0-3.901,0.874-7.422,2.622-10.564c1.748-3.141,4.153-5.586,7.22-7.334c3.065-1.748,6.523-2.622,10.374-2.622
			c3.85,0,7.283,0.874,10.298,2.622c3.014,1.748,5.37,4.193,7.068,7.334c1.696,3.143,2.546,6.739,2.546,10.792
			C790.646,267.473,790.595,268.206,790.494,269.118z M761.956,255.514c-2.355,2.129-3.736,4.916-4.142,8.36h25.84
			c-0.406-3.394-1.786-6.168-4.142-8.322c-2.356-2.152-5.282-3.229-8.778-3.229S764.312,253.387,761.956,255.514z"/>
	</g>
</g>
<g opacity="0.5">
	<path fill="#A3A9AF" d="M272.84,326.922c-2.705,0.979-5.469,1.811-8.289,2.494c-9.936,2.406-20.114,2.859-30.252,1.346
		s-19.74-4.919-28.54-10.122c-9.113-5.388-16.95-12.466-23.295-21.036c-13.733-18.552-18.673-42.085-13.554-64.566l44.671,10.172
		c-2.15,9.442-0.07,19.333,5.706,27.136c5.288,7.144,13.021,11.797,21.775,13.104c8.755,1.307,17.509-0.886,24.653-6.174
		s11.797-13.021,13.104-21.775c1.307-8.754-0.886-17.509-6.174-24.652c-0.131-0.177-0.255-0.341-0.381-0.505
		c-4.255-5.534-10.273-9.964-30.094-14.833c-32.232-7.918-55.965-36.745-58.474-69.942c-0.037-0.487-0.069-0.97-0.097-1.454
		c-0.866-15.12,2.573-30.053,9.945-43.189c7.167-12.771,17.711-23.282,30.492-30.396l22.282,40.031
		c-5.37,2.989-9.804,7.411-12.821,12.787c-3.086,5.499-4.524,11.771-4.159,18.139c0.012,0.208,0.026,0.422,0.042,0.637
		c1.041,13.779,10.525,26.97,25.567,31.114c14.646,4.034,22.872,5.126,33.438,10.897c9.604,5.246,15.634,11.651,20.199,18.286
		c0.28,0.406,0.597,0.784,0.891,1.181c6.337,8.56,10.817,18.123,13.309,28.412c2.406,9.935,2.859,20.114,1.346,30.252
		c-1.513,10.138-4.919,19.741-10.122,28.54c-5.388,9.113-12.466,16.95-21.036,23.295
		C286.751,320.705,280.005,324.329,272.84,326.922z"/>
</g>
<path opacity="0.5" fill="#A3A9AF" d="M137.904,115.015c-12.164-16.432-29.971-27.14-50.142-30.151
	c-12.701-1.896-25.398-0.599-37.162,3.658c-6.918,2.504-13.514,6.031-19.599,10.535C14.569,111.222,3.861,129.029,0.851,149.2
	c-3.011,20.171,2.03,40.329,14.194,56.761s29.971,27.14,50.142,30.151c20.171,3.011,40.329-2.03,56.761-14.194
	c16.432-12.164,27.14-29.971,30.151-50.142C155.109,151.605,150.068,131.447,137.904,115.015z"/>
<g opacity="0.5">
	<g>
		<path fill="#A3A9AF" d="M380.612,151.797c-8.642,3.128-17.691,4.69-26.939,4.647c-10.145-0.047-20.034-2.023-29.391-5.874
			c-9.689-3.988-18.369-9.811-25.798-17.309c-7.429-7.498-13.172-16.231-17.069-25.957c-3.764-9.392-5.649-19.298-5.602-29.443
			c0.047-10.146,2.023-20.034,5.874-29.391c3.988-9.69,9.811-18.369,17.309-25.798c7.497-7.429,16.231-13.172,25.957-17.07
			c9.393-3.762,19.298-5.649,29.444-5.602c10.145,0.047,20.034,2.023,29.391,5.874c9.689,3.988,18.369,9.811,25.798,17.309
			l-31.397,31.108c-6.407-6.467-14.929-10.051-23.996-10.093c-9.067-0.042-17.622,3.463-24.088,9.871
			c-6.467,6.407-10.051,14.93-10.093,23.997c-0.042,9.067,3.464,17.621,9.871,24.088c6.407,6.467,14.929,10.051,23.996,10.093
			c9.067,0.042,17.622-3.464,24.089-9.871c6.467-6.407,10.051-14.929,10.093-23.996l44.197,0.204
			c-0.047,10.145-2.023,20.034-5.874,29.391c-3.988,9.689-9.811,18.369-17.309,25.798c-7.498,7.429-16.231,13.172-25.957,17.07
			C382.286,151.175,381.451,151.494,380.612,151.797z"/>
	</g>
</g>
<g opacity="0.5">
	<path fill="#A3A9AF" d="M394.306,232.975c-12.789,9.467-30.774,6.782-40.24-6.006c-9.467-12.789-6.783-30.774,6.006-40.241
		c12.789-9.467,30.774-6.782,40.241,6.007C409.779,205.523,407.095,223.508,394.306,232.975z"/>
</g>
</svg>
