<?xml version="1.0" encoding="UTF-8" standalone="no"?>
<svg width="44px" height="44px" viewBox="0 0 44 44" version="1.1" xmlns="http://www.w3.org/2000/svg" xmlns:xlink="http://www.w3.org/1999/xlink">
    <!-- Generator: Sketch 47.1 (45422) - http://www.bohemiancoding.com/sketch -->
    <title>plus</title>
    <desc>Created with Sketch.</desc>
    <defs></defs>
    <g id="Design-V.2" stroke="none" stroke-width="1" fill="none" fill-rule="evenodd">
        <g id="Upload---Photos" transform="translate(-836.000000, -599.000000)" stroke="#000000" fill-rule="nonzero" fill="#000000">
            <g id="plus" transform="translate(837.000000, 600.000000)">
                <path d="M21,0 C9.42092308,0 0,9.42011538 0,21 C0,32.5798846 9.42092308,42 21,42 C32.5790769,42 42,32.5798846 42,21 C42,9.42011538 32.5790769,0 21,0 Z M21,40.3846154 C10.3118077,40.3846154 1.61538462,31.6881923 1.61538462,21 C1.61538462,10.3118077 10.3118077,1.61538462 21,1.61538462 C31.6881923,1.61538462 40.3846154,10.3118077 40.3846154,21 C40.3846154,31.6881923 31.6881923,40.3846154 21,40.3846154 Z" id="Shape"></path>
                <path d="M30.2222222,19.3333333 L21.2777778,19.3333333 L21.2777778,10.7777778 C21.2777778,10.3476667 20.9293333,10 20.5,10 C20.0706667,10 19.7222222,10.3476667 19.7222222,10.7777778 L19.7222222,19.3333333 L10.7777778,19.3333333 C10.3484444,19.3333333 10,19.681 10,20.1111111 C10,20.5412222 10.3484444,20.8888889 10.7777778,20.8888889 L19.7222222,20.8888889 L19.7222222,30.2222222 C19.7222222,30.6523333 20.0706667,31 20.5,31 C20.9293333,31 21.2777778,30.6523333 21.2777778,30.2222222 L21.2777778,20.8888889 L30.2222222,20.8888889 C30.6515556,20.8888889 31,20.5412222 31,20.1111111 C31,19.681 30.6515556,19.3333333 30.2222222,19.3333333 Z" id="Shape"></path>
            </g>
        </g>
    </g>
</svg>